<?xml version="1.0" encoding="UTF-8"?> <svg xmlns="http://www.w3.org/2000/svg" xmlns:xlink="http://www.w3.org/1999/xlink" version="1.1" width="1454px" height="406px" style="shape-rendering:geometricPrecision; text-rendering:geometricPrecision; image-rendering:optimizeQuality; fill-rule:evenodd; clip-rule:evenodd"><g><path style="opacity:1" fill="#1f214b" d="M 1141.5,23.5 C 1155.17,23.5 1168.83,23.5 1182.5,23.5C 1182.5,98.1667 1182.5,172.833 1182.5,247.5C 1168.83,247.5 1155.17,247.5 1141.5,247.5C 1141.5,172.833 1141.5,98.1667 1141.5,23.5 Z"></path></g><g><path style="opacity:1" fill="#1f214a" d="M 448.5,26.5 C 462.167,26.5 475.833,26.5 489.5,26.5C 489.5,46.5 489.5,66.5 489.5,86.5C 497.5,86.5 505.5,86.5 513.5,86.5C 513.5,98.1667 513.5,109.833 513.5,121.5C 505.5,121.5 497.5,121.5 489.5,121.5C 489.5,163.5 489.5,205.5 489.5,247.5C 475.833,247.5 462.167,247.5 448.5,247.5C 448.5,205.5 448.5,163.5 448.5,121.5C 441.833,121.5 435.167,121.5 428.5,121.5C 428.5,109.833 428.5,98.1667 428.5,86.5C 435.167,86.5 441.833,86.5 448.5,86.5C 448.5,66.5 448.5,46.5 448.5,26.5 Z"></path></g><g><path style="opacity:0.997" fill="#1f204a" d="M 36.5,29.5 C 50.8333,29.5 65.1667,29.5 79.5,29.5C 88.473,56.7216 97.1396,84.055 105.5,111.5C 113.149,133.473 120.815,155.473 128.5,177.5C 136.185,155.473 143.851,133.473 151.5,111.5C 159.86,84.055 168.527,56.7216 177.5,29.5C 191.833,29.5 206.167,29.5 220.5,29.5C 231.435,102.214 243.435,174.714 256.5,247C 249.667,247.167 242.833,247.333 236,247.5C 228.666,247.464 221.499,246.797 214.5,245.5C 206.919,201.851 199.419,158.184 192,114.5C 176.899,158.378 162.065,202.378 147.5,246.5C 134.846,247.666 122.18,247.833 109.5,247C 95.0534,202.718 80.2201,158.552 65,114.5C 57.4709,158.922 49.6376,203.255 41.5,247.5C 27.8333,247.5 14.1667,247.5 0.5,247.5C 10.6894,183.197 21.6894,119.03 33.5,55C 34.7746,46.5221 35.7746,38.0221 36.5,29.5 Z"></path></g><g><path style="opacity:1" fill="#a01c17" d="M 1368.5,39.5 C 1367.98,41.7079 1366.64,43.2079 1364.5,44C 1365.42,44.2784 1366.08,44.7784 1366.5,45.5C 1360.42,43.9824 1354.42,42.1491 1348.5,40C 1337.2,38.6123 1325.86,38.279 1314.5,39C 1306.63,40.3721 1298.96,42.2055 1291.5,44.5C 1291.06,44.5654 1290.73,44.3988 1290.5,44C 1292,41.8333 1293.83,40 1296,38.5C 1296.48,37.552 1296.65,36.552 1296.5,35.5C 1310.08,30.7985 1324.08,29.2985 1338.5,31C 1346.47,32.6433 1354.47,34.31 1362.5,36C 1364.44,37.4618 1366.44,38.6285 1368.5,39.5 Z"></path></g><g><path style="opacity:1" fill="#a7a1a0" d="M 1366.5,45.5 C 1371.92,47.9556 1376.92,50.9556 1381.5,54.5C 1379.83,54.5 1378.17,54.5 1376.5,54.5C 1369.26,51.027 1361.76,48.027 1354,45.5C 1347.59,43.9421 1341.09,42.9421 1334.5,42.5C 1306.12,41.005 1281.96,50.005 1262,69.5C 1256.89,75.5014 1252.22,81.8347 1248,88.5C 1244.95,95.3434 1242.11,102.177 1239.5,109C 1237.81,120.098 1237.14,131.265 1237.5,142.5C 1238.28,150.393 1239.94,158.059 1242.5,165.5C 1242.78,167.415 1242.45,169.081 1241.5,170.5C 1240.5,170.53 1239.84,170.03 1239.5,169C 1234.09,153.306 1232.09,137.14 1233.5,120.5C 1238.18,93.7182 1251.18,72.0516 1272.5,55.5C 1278.77,51.6408 1285.1,47.9742 1291.5,44.5C 1298.96,42.2055 1306.63,40.3721 1314.5,39C 1325.86,38.279 1337.2,38.6123 1348.5,40C 1354.42,42.1491 1360.42,43.9824 1366.5,45.5 Z"></path></g><g><path style="opacity:0.29" fill="#d54121" d="M 1275.5,40.5 C 1275.5,41.8333 1274.83,42.5 1273.5,42.5C 1273.5,41.1667 1274.17,40.5 1275.5,40.5 Z"></path></g><g><path style="opacity:1" fill="#fcfcfc" d="M 1334.5,42.5 C 1338.23,45.8062 1341.06,49.8062 1343,54.5C 1344.36,60.5885 1345.86,66.5885 1347.5,72.5C 1343.5,72.5 1339.5,72.5 1335.5,72.5C 1335.5,68.8333 1335.5,65.1667 1335.5,61.5C 1334.5,61.5 1333.5,61.5 1332.5,61.5C 1330.52,74.4581 1329.85,87.7914 1330.5,101.5C 1330.5,102.5 1330.5,103.5 1330.5,104.5C 1327.96,124.013 1322.46,142.68 1314,160.5C 1312.48,161.163 1311.31,162.163 1310.5,163.5C 1307.83,163.5 1305.17,163.5 1302.5,163.5C 1300.82,163.108 1299.15,162.608 1297.5,162C 1296.22,159.597 1294.39,157.763 1292,156.5C 1290.58,146.914 1290.08,137.247 1290.5,127.5C 1287.78,128.451 1284.95,129.117 1282,129.5C 1279.05,129.117 1276.22,128.451 1273.5,127.5C 1273.64,137.854 1273.3,148.188 1272.5,158.5C 1258.77,157.126 1247.1,151.792 1237.5,142.5C 1237.14,131.265 1237.81,120.098 1239.5,109C 1242.11,102.177 1244.95,95.3434 1248,88.5C 1252.22,81.8347 1256.89,75.5014 1262,69.5C 1281.96,50.005 1306.12,41.005 1334.5,42.5 Z"></path></g><g><path style="opacity:1" fill="#b01e18" d="M 1368.5,39.5 C 1372.77,41.4432 1377.1,43.4432 1381.5,45.5C 1386.4,48.4406 1391.07,51.6072 1395.5,55C 1398.45,58.3431 1398.11,61.1764 1394.5,63.5C 1393.45,63.6495 1392.45,63.4828 1391.5,63C 1388.58,59.5733 1385.25,56.7399 1381.5,54.5C 1376.92,50.9556 1371.92,47.9556 1366.5,45.5C 1366.08,44.7784 1365.42,44.2784 1364.5,44C 1366.64,43.2079 1367.98,41.7079 1368.5,39.5 Z"></path></g><g><path style="opacity:0.996" fill="#e26646" d="M 1266.5,47.5 C 1265.34,49.2503 1263.67,50.2503 1261.5,50.5C 1262.4,48.2729 1264.07,47.2729 1266.5,47.5 Z"></path></g><g><path style="opacity:1" fill="#f1f1f1" d="M 1334.5,42.5 C 1341.09,42.9421 1347.59,43.9421 1354,45.5C 1361.76,48.027 1369.26,51.027 1376.5,54.5C 1376.93,55.7095 1377.6,56.7095 1378.5,57.5C 1381.58,75.0405 1380.58,92.3739 1375.5,109.5C 1374.42,111.786 1373.09,113.786 1371.5,115.5C 1371.43,112.807 1371.1,110.14 1370.5,107.5C 1370.36,105.97 1369.69,104.97 1368.5,104.5C 1368.81,101.287 1368.48,98.2869 1367.5,95.5C 1367.5,84.5 1367.5,73.5 1367.5,62.5C 1365.83,62.5 1364.17,62.5 1362.5,62.5C 1362.5,65.8333 1362.5,69.1667 1362.5,72.5C 1357.5,72.5 1352.5,72.5 1347.5,72.5C 1345.86,66.5885 1344.36,60.5885 1343,54.5C 1341.06,49.8062 1338.23,45.8062 1334.5,42.5 Z"></path></g><g><path style="opacity:1" fill="#c4221a" d="M 1426.5,94.5 C 1425.55,95.9187 1425.22,97.5853 1425.5,99.5C 1424.84,98.7222 1424.01,98.0556 1423,97.5C 1421.65,99.0182 1420.15,100.351 1418.5,101.5C 1415.92,98.165 1414.25,94.3316 1413.5,90C 1407.81,80.8089 1401.47,71.9756 1394.5,63.5C 1398.11,61.1764 1398.45,58.3431 1395.5,55C 1391.07,51.6072 1386.4,48.4406 1381.5,45.5C 1377.1,43.4432 1372.77,41.4432 1368.5,39.5C 1366.44,38.6285 1364.44,37.4618 1362.5,36C 1354.47,34.31 1346.47,32.6433 1338.5,31C 1324.08,29.2985 1310.08,30.7985 1296.5,35.5C 1296.17,35.5 1295.83,35.5 1295.5,35.5C 1294.08,34.5489 1292.41,34.2155 1290.5,34.5C 1292.75,33.3774 1295.08,32.2107 1297.5,31C 1339.41,20.8186 1375.58,30.3186 1406,59.5C 1410.69,64.8643 1415.03,70.531 1419,76.5C 1422.58,82.0708 1425.08,88.0708 1426.5,94.5 Z"></path></g><g><path style="opacity:1" fill="#d4492e" d="M 1261.5,50.5 C 1258.35,54.104 1255.18,57.7707 1252,61.5C 1249.27,63.4178 1246.77,65.4178 1244.5,67.5C 1244.28,66.325 1244.61,65.325 1245.5,64.5C 1248.52,61.6511 1251.35,58.6511 1254,55.5C 1256.44,53.5327 1258.94,51.866 1261.5,50.5 Z"></path></g><g><path style="opacity:1" fill="#474269" d="M 1332.5,61.5 C 1333.15,75.2086 1332.48,88.5419 1330.5,101.5C 1329.85,87.7914 1330.52,74.4581 1332.5,61.5 Z"></path></g><g><path style="opacity:1" fill="#262650" d="M 1332.5,61.5 C 1333.5,61.5 1334.5,61.5 1335.5,61.5C 1335.5,65.1667 1335.5,68.8333 1335.5,72.5C 1339.5,72.5 1343.5,72.5 1347.5,72.5C 1352.5,72.5 1357.5,72.5 1362.5,72.5C 1363.48,69.7131 1363.81,66.7131 1363.5,63.5C 1364.5,63.5 1365.5,63.5 1366.5,63.5C 1366.17,74.3464 1366.51,85.0131 1367.5,95.5C 1368.48,98.2869 1368.81,101.287 1368.5,104.5C 1367.78,104.082 1367.28,103.416 1367,102.5C 1366.17,129.336 1366.34,156.003 1367.5,182.5C 1370.06,183.642 1372.73,184.642 1375.5,185.5C 1378.11,184.731 1380.78,184.397 1383.5,184.5C 1383.5,185.5 1383.5,186.5 1383.5,187.5C 1384.5,187.5 1385.5,187.5 1386.5,187.5C 1386.5,185.167 1386.5,182.833 1386.5,180.5C 1388.62,180.675 1390.62,180.341 1392.5,179.5C 1393.5,179.5 1394.5,179.5 1395.5,179.5C 1395.55,181.903 1395.22,184.236 1394.5,186.5C 1389.4,190.094 1384.73,194.261 1380.5,199C 1378.35,200.411 1376.02,201.245 1373.5,201.5C 1338.17,201.5 1302.83,201.5 1267.5,201.5C 1263.05,199.37 1261.22,195.704 1262,190.5C 1260.04,192.688 1258.54,192.688 1257.5,190.5C 1260.3,186.937 1263.14,183.271 1266,179.5C 1269.33,172.847 1271.5,165.847 1272.5,158.5C 1273.3,148.188 1273.64,137.854 1273.5,127.5C 1276.22,128.451 1279.05,129.117 1282,129.5C 1284.95,129.117 1287.78,128.451 1290.5,127.5C 1290.08,137.247 1290.58,146.914 1292,156.5C 1294.39,157.763 1296.22,159.597 1297.5,162C 1299.15,162.608 1300.82,163.108 1302.5,163.5C 1302.67,164.492 1302.34,165.158 1301.5,165.5C 1297.31,163.818 1293.81,161.151 1291,157.5C 1290.03,160.928 1291.03,163.595 1294,165.5C 1298.04,166.958 1302.21,167.625 1306.5,167.5C 1309.29,168.477 1312.29,168.81 1315.5,168.5C 1315.5,169.5 1315.5,170.5 1315.5,171.5C 1316.83,171.5 1318.17,171.5 1319.5,171.5C 1323.15,171.942 1326.82,172.276 1330.5,172.5C 1330.66,170.473 1330.5,168.473 1330,166.5C 1327,167.866 1323.84,168.533 1320.5,168.5C 1319.51,168.672 1318.84,168.338 1318.5,167.5C 1321.57,167.453 1324.57,166.953 1327.5,166C 1329.12,165.764 1330.12,164.931 1330.5,163.5C 1331.83,155.026 1332.5,146.193 1332.5,137C 1332.35,126.098 1331.68,115.265 1330.5,104.5C 1330.5,103.5 1330.5,102.5 1330.5,101.5C 1332.48,88.5419 1333.15,75.2086 1332.5,61.5 Z"></path></g><g><path style="opacity:1" fill="#e5b19d" d="M 1290.5,34.5 C 1292.41,34.2155 1294.08,34.5489 1295.5,35.5C 1266.92,50.083 1245.25,71.7496 1230.5,100.5C 1229.56,97.3322 1229.56,93.9988 1230.5,90.5C 1232.17,87.1453 1233.84,83.812 1235.5,80.5C 1237.45,79.9653 1238.45,78.632 1238.5,76.5C 1240.94,75.7298 1242.27,74.0632 1242.5,71.5C 1242.23,69.6203 1242.9,68.287 1244.5,67.5C 1246.77,65.4178 1249.27,63.4178 1252,61.5C 1255.18,57.7707 1258.35,54.104 1261.5,50.5C 1263.67,50.2503 1265.34,49.2503 1266.5,47.5C 1266.41,46.5041 1266.75,45.6708 1267.5,45C 1269.63,44.3448 1271.63,43.5114 1273.5,42.5C 1274.83,42.5 1275.5,41.8333 1275.5,40.5C 1280.08,37.4454 1285.08,35.4454 1290.5,34.5 Z"></path></g><g><path style="opacity:1" fill="#524b70" d="M 1367.5,95.5 C 1366.51,85.0131 1366.17,74.3464 1366.5,63.5C 1365.5,63.5 1364.5,63.5 1363.5,63.5C 1363.81,66.7131 1363.48,69.7131 1362.5,72.5C 1362.5,69.1667 1362.5,65.8333 1362.5,62.5C 1364.17,62.5 1365.83,62.5 1367.5,62.5C 1367.5,73.5 1367.5,84.5 1367.5,95.5 Z"></path></g><g><path style="opacity:1" fill="#e5e4e5" d="M 1378.5,57.5 C 1390.56,64.9588 1399.89,74.9588 1406.5,87.5C 1406.69,93.8885 1406.19,100.222 1405,106.5C 1402.87,112.013 1401.2,117.68 1400,123.5C 1397.49,127.337 1395.66,131.504 1394.5,136C 1390.85,140.982 1387.52,146.148 1384.5,151.5C 1383.58,152.127 1382.58,152.461 1381.5,152.5C 1377.66,140.334 1374.33,128.001 1371.5,115.5C 1373.09,113.786 1374.42,111.786 1375.5,109.5C 1380.58,92.3739 1381.58,75.0405 1378.5,57.5 Z"></path></g><g><path style="opacity:0.996" fill="#df7858" d="M 1242.5,71.5 C 1242.27,74.0632 1240.94,75.7298 1238.5,76.5C 1238.34,73.656 1239.68,71.9893 1242.5,71.5 Z"></path></g><g><path style="opacity:0.722" fill="#d5482e" d="M 1238.5,76.5 C 1238.45,78.632 1237.45,79.9653 1235.5,80.5C 1235.47,78.3812 1236.47,77.0478 1238.5,76.5 Z"></path></g><g><path style="opacity:1" fill="#827b98" d="M 1361.5,95.5 C 1361.5,90.5 1361.5,85.5 1361.5,80.5C 1352.83,80.5 1344.17,80.5 1335.5,80.5C 1344.1,78.5289 1353.1,77.8623 1362.5,78.5C 1362.82,84.358 1362.49,90.0247 1361.5,95.5 Z"></path></g><g><path style="opacity:1" fill="#c0b8b7" d="M 1376.5,54.5 C 1378.17,54.5 1379.83,54.5 1381.5,54.5C 1385.25,56.7399 1388.58,59.5733 1391.5,63C 1392.45,63.4828 1393.45,63.6495 1394.5,63.5C 1401.47,71.9756 1407.81,80.8089 1413.5,90C 1414.25,94.3316 1415.92,98.165 1418.5,101.5C 1419.37,104.789 1420.04,108.123 1420.5,111.5C 1416.14,108.804 1413.81,104.804 1413.5,99.5C 1411.53,95.1949 1409.19,91.1949 1406.5,87.5C 1399.89,74.9588 1390.56,64.9588 1378.5,57.5C 1377.6,56.7095 1376.93,55.7095 1376.5,54.5 Z"></path></g><g><path style="opacity:1" fill="#f6f6f7" d="M 1335.5,80.5 C 1344.17,80.5 1352.83,80.5 1361.5,80.5C 1361.5,85.5 1361.5,90.5 1361.5,95.5C 1360.15,99.3869 1359.15,103.387 1358.5,107.5C 1356.09,113.901 1354.09,120.568 1352.5,127.5C 1347.02,128.489 1341.36,128.822 1335.5,128.5C 1335.5,112.5 1335.5,96.5 1335.5,80.5 Z"></path></g><g><path style="opacity:0.997" fill="#1f204b" d="M 333.5,81.5 C 364.008,79.0407 389.175,89.0407 409,111.5C 412.095,115.528 414.928,119.862 417.5,124.5C 424.727,142.078 428.061,160.412 427.5,179.5C 384.833,179.5 342.167,179.5 299.5,179.5C 300.83,190.408 305.664,199.408 314,206.5C 338.467,220.896 361.3,218.563 382.5,199.5C 394.449,204.808 406.116,210.641 417.5,217C 408.326,229.19 396.826,238.69 383,245.5C 357.337,254.833 331.671,254.833 306,245.5C 274.903,229.539 258.736,203.872 257.5,168.5C 257.868,139.125 269.202,115.291 291.5,97C 296.936,93.1969 302.769,90.0303 309,87.5C 317.269,85.3705 325.435,83.3705 333.5,81.5 Z M 340.5,116.5 C 354.858,116.856 367.191,121.856 377.5,131.5C 380.824,136.153 383.491,141.153 385.5,146.5C 357.167,147.833 328.833,147.833 300.5,146.5C 308.155,128.696 321.488,118.696 340.5,116.5 Z"></path></g><g><path style="opacity:0.999" fill="#1f204a" d="M 589.5,81.5 C 596.866,81.005 603.866,82.3383 610.5,85.5C 610.833,86.1667 611.167,86.8333 611.5,87.5C 607.513,98.4508 603.679,109.451 600,120.5C 599.439,121.022 598.772,121.355 598,121.5C 586.736,116.309 578.069,118.976 572,129.5C 567.873,139.376 565.873,149.709 566,160.5C 565.5,189.498 565.333,218.498 565.5,247.5C 552.167,247.5 538.833,247.5 525.5,247.5C 525.5,193.833 525.5,140.167 525.5,86.5C 537.167,86.5 548.833,86.5 560.5,86.5C 560.334,91.8437 560.501,97.1771 561,102.5C 564.289,97.3787 568.122,92.7121 572.5,88.5C 578.209,85.9394 583.876,83.606 589.5,81.5 Z"></path></g><g><path style="opacity:0.996" fill="#1f204b" d="M 675.5,81.5 C 715.643,80.4538 744.643,97.4538 762.5,132.5C 776.089,169.725 769.423,202.559 742.5,231C 730.335,240.513 716.668,247.18 701.5,251C 673.248,256.435 648.582,249.768 627.5,231C 599.853,202.555 593.02,169.388 607,131.5C 621.328,103.175 644.161,86.5084 675.5,81.5 Z M 683.5,120.5 C 703.993,121.662 717.827,131.662 725,150.5C 732.447,178.429 723.614,198.762 698.5,211.5C 685.18,215.058 672.513,213.558 660.5,207C 657,203.5 653.5,200 650,196.5C 641.758,183.861 639.258,170.028 642.5,155C 645.941,142.884 652.774,133.384 663,126.5C 669.776,123.843 676.61,121.843 683.5,120.5 Z"></path></g><g><path style="opacity:0.997" fill="#1f214b" d="M 865.5,81.5 C 906.44,81.9649 932.94,101.632 945,140.5C 947.824,156.116 948.157,171.783 946,187.5C 939.75,217.705 922.25,238.371 893.5,249.5C 866.988,256.958 843.655,251.625 823.5,233.5C 822.5,257.824 822.167,282.158 822.5,306.5C 808.833,306.5 795.167,306.5 781.5,306.5C 781.5,233.167 781.5,159.833 781.5,86.5C 795.167,86.5 808.833,86.5 822.5,86.5C 822.334,91.5111 822.501,96.5111 823,101.5C 835.184,90.598 849.351,83.9313 865.5,81.5 Z M 855.5,120.5 C 881.747,118.815 898.414,130.482 905.5,155.5C 909.915,181.548 900.581,200.381 877.5,212C 858.273,217.086 842.273,212.253 829.5,197.5C 815.539,174.17 817.206,152.003 834.5,131C 837.696,129.243 840.696,127.243 843.5,125C 847.752,123.858 851.752,122.358 855.5,120.5 Z"></path></g><g><path style="opacity:0.996" fill="#1f204b" d="M 1035.5,81.5 C 1070.33,80.3304 1097.33,93.8304 1116.5,122C 1135.19,158.625 1132.02,193.125 1107,225.5C 1082.43,249.942 1052.93,257.942 1018.5,249.5C 970.91,229.294 952.243,193.461 962.5,142C 975.152,107.857 999.485,87.6903 1035.5,81.5 Z M 1043.5,120.5 C 1070.82,123.657 1085.48,139.157 1087.5,167C 1086.16,173.865 1084.66,180.698 1083,187.5C 1080.49,192.533 1077.49,197.2 1074,201.5C 1058.08,214.737 1040.58,216.903 1021.5,208C 1007.33,198.227 1000.33,184.56 1000.5,167C 1002.68,139.993 1017.01,124.493 1043.5,120.5 Z"></path></g><g><path style="opacity:1" fill="#9b251b" d="M 1295.5,35.5 C 1295.83,35.5 1296.17,35.5 1296.5,35.5C 1296.65,36.552 1296.48,37.552 1296,38.5C 1293.83,40 1292,41.8333 1290.5,44C 1290.73,44.3988 1291.06,44.5654 1291.5,44.5C 1285.1,47.9742 1278.77,51.6408 1272.5,55.5C 1251.18,72.0516 1238.18,93.7182 1233.5,120.5C 1231.54,121.615 1229.71,122.948 1228,124.5C 1227.5,122.527 1227.34,120.527 1227.5,118.5C 1227.48,112.297 1228.48,106.297 1230.5,100.5C 1245.25,71.7496 1266.92,50.083 1295.5,35.5 Z"></path></g><g><path style="opacity:1" fill="#aca6ba" d="M 1362.5,128.5 C 1362.17,128.5 1361.83,128.5 1361.5,128.5C 1362.13,120.757 1361.46,113.424 1359.5,106.5C 1360.83,105.17 1361.67,103.503 1362,101.5C 1362.5,110.494 1362.67,119.494 1362.5,128.5 Z"></path></g><g><path style="opacity:1" fill="#484469" d="M 1368.5,104.5 C 1369.69,104.97 1370.36,105.97 1370.5,107.5C 1371.1,110.14 1371.43,112.807 1371.5,115.5C 1374.33,128.001 1377.66,140.334 1381.5,152.5C 1384.97,161.575 1388.64,170.575 1392.5,179.5C 1390.62,180.341 1388.62,180.675 1386.5,180.5C 1387.57,179.566 1388.9,179.232 1390.5,179.5C 1379.92,156.53 1372.42,132.53 1368,107.5C 1367.5,132.498 1367.33,157.498 1367.5,182.5C 1366.34,156.003 1366.17,129.336 1367,102.5C 1367.28,103.416 1367.78,104.082 1368.5,104.5 Z"></path></g><g><path style="opacity:1" fill="#eeedef" d="M 1359.5,106.5 C 1361.46,113.424 1362.13,120.757 1361.5,128.5C 1359.17,128.5 1356.83,128.5 1354.5,128.5C 1356.32,122.213 1357.99,115.88 1359.5,109.5C 1359.5,108.5 1359.5,107.5 1359.5,106.5 Z"></path></g><g><path style="opacity:1" fill="#d9d7d8" d="M 1406.5,87.5 C 1409.19,91.1949 1411.53,95.1949 1413.5,99.5C 1413.81,104.804 1416.14,108.804 1420.5,111.5C 1421.09,114.127 1421.42,116.794 1421.5,119.5C 1420.95,123.012 1421.61,126.012 1423.5,128.5C 1423.5,133.167 1423.5,137.833 1423.5,142.5C 1421.74,143.552 1421.08,145.219 1421.5,147.5C 1421.45,151.078 1420.78,154.411 1419.5,157.5C 1419.96,152.971 1418.96,152.471 1416.5,156C 1413.25,169.822 1406.92,181.655 1397.5,191.5C 1396.83,191.5 1396.17,191.5 1395.5,191.5C 1394.7,189.958 1394.37,188.292 1394.5,186.5C 1395.22,184.236 1395.55,181.903 1395.5,179.5C 1394.5,179.5 1393.5,179.5 1392.5,179.5C 1388.64,170.575 1384.97,161.575 1381.5,152.5C 1382.58,152.461 1383.58,152.127 1384.5,151.5C 1387.52,146.148 1390.85,140.982 1394.5,136C 1395.66,131.504 1397.49,127.337 1400,123.5C 1401.2,117.68 1402.87,112.013 1405,106.5C 1406.19,100.222 1406.69,93.8885 1406.5,87.5 Z"></path></g><g><path style="opacity:1" fill="#4d486d" d="M 1330.5,104.5 C 1331.68,115.265 1332.35,126.098 1332.5,137C 1332.5,146.193 1331.83,155.026 1330.5,163.5C 1330.67,147.83 1330.5,132.163 1330,116.5C 1327.9,132.587 1322.9,147.587 1315,161.5C 1313.89,163.037 1312.39,163.703 1310.5,163.5C 1311.31,162.163 1312.48,161.163 1314,160.5C 1322.46,142.68 1327.96,124.013 1330.5,104.5 Z"></path></g><g><path style="opacity:1" fill="#524d71" d="M 1358.5,107.5 C 1358.33,108.492 1358.66,109.158 1359.5,109.5C 1357.99,115.88 1356.32,122.213 1354.5,128.5C 1356.83,128.5 1359.17,128.5 1361.5,128.5C 1361.83,128.5 1362.17,128.5 1362.5,128.5C 1359.02,129.99 1355.69,129.657 1352.5,127.5C 1354.09,120.568 1356.09,113.901 1358.5,107.5 Z"></path></g><g><path style="opacity:1" fill="#d79b88" d="M 1421.5,119.5 C 1423.39,121.988 1424.05,124.988 1423.5,128.5C 1421.61,126.012 1420.95,123.012 1421.5,119.5 Z"></path></g><g><path style="opacity:1" fill="#78718f" d="M 1287.5,133.5 C 1283.67,132.931 1280.34,133.598 1277.5,135.5C 1276.6,134.791 1276.26,133.791 1276.5,132.5C 1280.37,132.185 1284.04,132.518 1287.5,133.5 Z"></path></g><g><path style="opacity:1" fill="#d41718" d="M 1425.5,99.5 C 1435.62,133.609 1430.78,165.276 1411,194.5C 1397.69,211.798 1380.69,224.131 1360,231.5C 1355.13,232.44 1350.3,233.44 1345.5,234.5C 1335.58,236.087 1325.58,236.753 1315.5,236.5C 1307.57,234.943 1299.91,232.443 1292.5,229C 1295.03,227.611 1297.36,226.111 1299.5,224.5C 1301.12,225.038 1302.78,225.371 1304.5,225.5C 1305.17,225.5 1305.83,225.5 1306.5,225.5C 1307.18,227.176 1308.52,227.843 1310.5,227.5C 1321.14,228.57 1331.81,228.737 1342.5,228C 1344.74,227.95 1346.41,227.117 1347.5,225.5C 1352.24,225.119 1356.9,224.286 1361.5,223C 1389.26,211.905 1408.26,192.238 1418.5,164C 1419.08,161.863 1419.41,159.696 1419.5,157.5C 1420.78,154.411 1421.45,151.078 1421.5,147.5C 1423.26,146.448 1423.92,144.781 1423.5,142.5C 1423.5,137.833 1423.5,133.167 1423.5,128.5C 1424.05,124.988 1423.39,121.988 1421.5,119.5C 1421.42,116.794 1421.09,114.127 1420.5,111.5C 1420.04,108.123 1419.37,104.789 1418.5,101.5C 1420.15,100.351 1421.65,99.0182 1423,97.5C 1424.01,98.0556 1424.84,98.7222 1425.5,99.5 Z"></path></g><g><path style="opacity:1" fill="#ededee" d="M 1335.5,137.5 C 1339.83,137.5 1344.17,137.5 1348.5,137.5C 1348.66,139.199 1348.49,140.866 1348,142.5C 1346.09,145.983 1344.26,149.483 1342.5,153C 1341.67,153.688 1341,153.521 1340.5,152.5C 1339.86,150.22 1338.86,148.22 1337.5,146.5C 1336.59,143.564 1335.93,140.564 1335.5,137.5 Z"></path></g><g><path style="opacity:1" fill="#9893a8" d="M 1359.5,180.5 C 1361.48,166.539 1362.15,152.206 1361.5,137.5C 1358.17,137.5 1354.83,137.5 1351.5,137.5C 1354.68,135.586 1358.35,134.92 1362.5,135.5C 1362.5,150.833 1362.5,166.167 1362.5,181.5C 1361.21,181.737 1360.21,181.404 1359.5,180.5 Z"></path></g><g><path style="opacity:1" fill="#f6f5f6" d="M 1287.5,133.5 C 1287.5,139.5 1287.5,145.5 1287.5,151.5C 1285.17,151.5 1282.83,151.5 1280.5,151.5C 1279.06,146.271 1278.06,140.938 1277.5,135.5C 1280.34,133.598 1283.67,132.931 1287.5,133.5 Z"></path></g><g><path style="opacity:1" fill="#edebef" d="M 1276.5,143.5 C 1277.34,145.487 1278.01,147.654 1278.5,150C 1278.17,150.5 1277.83,151 1277.5,151.5C 1276.52,148.914 1276.19,146.247 1276.5,143.5 Z"></path></g><g><path style="opacity:1" fill="#edecee" d="M 1330.5,163.5 C 1330.12,164.931 1329.12,165.764 1327.5,166C 1324.57,166.953 1321.57,167.453 1318.5,167.5C 1314.5,167.5 1310.5,167.5 1306.5,167.5C 1302.21,167.625 1298.04,166.958 1294,165.5C 1291.03,163.595 1290.03,160.928 1291,157.5C 1293.81,161.151 1297.31,163.818 1301.5,165.5C 1303.97,166.634 1306.63,166.801 1309.5,166C 1310.25,165.329 1310.59,164.496 1310.5,163.5C 1312.39,163.703 1313.89,163.037 1315,161.5C 1322.9,147.587 1327.9,132.587 1330,116.5C 1330.5,132.163 1330.67,147.83 1330.5,163.5 Z"></path></g><g><path style="opacity:1" fill="#dd7359" d="M 1423.5,142.5 C 1423.92,144.781 1423.26,146.448 1421.5,147.5C 1421.08,145.219 1421.74,143.552 1423.5,142.5 Z"></path></g><g><path style="opacity:1" fill="#eeedee" d="M 1237.5,142.5 C 1247.1,151.792 1258.77,157.126 1272.5,158.5C 1271.5,165.847 1269.33,172.847 1266,179.5C 1263.14,183.271 1260.3,186.937 1257.5,190.5C 1254.54,187.523 1251.87,184.19 1249.5,180.5C 1247.41,175.316 1245.07,170.316 1242.5,165.5C 1239.94,158.059 1238.28,150.393 1237.5,142.5 Z"></path></g><g><path style="opacity:1" fill="#ebebec" d="M 1339.5,157.5 C 1338.83,157.5 1338.5,157.833 1338.5,158.5C 1337.85,159.091 1337.18,159.757 1336.5,160.5C 1335.17,156.167 1335.17,151.833 1336.5,147.5C 1338.09,150.675 1339.09,154.009 1339.5,157.5 Z"></path></g><g><path style="opacity:1" fill="#5a5477" d="M 1351.5,138.5 C 1349.54,145.087 1346.54,151.087 1342.5,156.5C 1342.63,155.624 1342.3,154.957 1341.5,154.5C 1340.82,155.602 1340.16,156.602 1339.5,157.5C 1339.09,154.009 1338.09,150.675 1336.5,147.5C 1335.17,151.833 1335.17,156.167 1336.5,160.5C 1337.18,159.757 1337.85,159.091 1338.5,158.5C 1338.5,159.167 1338.5,159.833 1338.5,160.5C 1338.5,161.167 1338.17,161.5 1337.5,161.5C 1336.5,161.5 1335.5,161.5 1334.5,161.5C 1334.5,156.5 1334.5,151.5 1334.5,146.5C 1335.5,146.5 1336.5,146.5 1337.5,146.5C 1338.86,148.22 1339.86,150.22 1340.5,152.5C 1341,153.521 1341.67,153.688 1342.5,153C 1344.26,149.483 1346.09,145.983 1348,142.5C 1348.49,140.866 1348.66,139.199 1348.5,137.5C 1344.17,137.5 1339.83,137.5 1335.5,137.5C 1339.71,135.564 1344.38,134.897 1349.5,135.5C 1349.29,137.179 1349.95,138.179 1351.5,138.5 Z"></path></g><g><path style="opacity:1" fill="#ededef" d="M 1282.5,154.5 C 1284.17,154.5 1285.83,154.5 1287.5,154.5C 1287.66,156.527 1287.5,158.527 1287,160.5C 1285.61,158.298 1284.11,156.298 1282.5,154.5 Z"></path></g><g><path style="opacity:1" fill="#e5e4e5" d="M 1351.5,137.5 C 1354.83,137.5 1358.17,137.5 1361.5,137.5C 1362.15,152.206 1361.48,166.539 1359.5,180.5C 1356.61,180.357 1354.28,179.357 1352.5,177.5C 1352.2,175.545 1351.2,174.211 1349.5,173.5C 1346.9,167.968 1344.57,162.302 1342.5,156.5C 1346.54,151.087 1349.54,145.087 1351.5,138.5C 1351.5,138.167 1351.5,137.833 1351.5,137.5 Z"></path></g><g><path style="opacity:1" fill="#dddcdd" d="M 1386.5,180.5 C 1386.5,182.833 1386.5,185.167 1386.5,187.5C 1385.5,187.5 1384.5,187.5 1383.5,187.5C 1383.5,186.5 1383.5,185.5 1383.5,184.5C 1380.78,184.397 1378.11,184.731 1375.5,185.5C 1372.73,184.642 1370.06,183.642 1367.5,182.5C 1367.33,157.498 1367.5,132.498 1368,107.5C 1372.42,132.53 1379.92,156.53 1390.5,179.5C 1388.9,179.232 1387.57,179.566 1386.5,180.5 Z"></path></g><g><path style="opacity:1" fill="#eae9ec" d="M 1276.5,154.5 C 1278.17,154.5 1279.83,154.5 1281.5,154.5C 1281.35,155.552 1281.52,156.552 1282,157.5C 1285.83,160.162 1287.66,163.829 1287.5,168.5C 1284.06,169.906 1280.56,171.239 1277,172.5C 1276.5,166.509 1276.33,160.509 1276.5,154.5 Z"></path></g><g><path style="opacity:1" fill="#dcdade" d="M 1337.5,161.5 C 1338.17,161.5 1338.5,161.167 1338.5,160.5C 1339.47,159.194 1340.8,158.527 1342.5,158.5C 1342.6,161.956 1343.6,165.123 1345.5,168C 1343.53,168.495 1341.53,168.662 1339.5,168.5C 1339.5,170.833 1339.5,173.167 1339.5,175.5C 1338.17,175.5 1336.83,175.5 1335.5,175.5C 1334.99,170.52 1335.65,165.854 1337.5,161.5 Z"></path></g><g><path style="opacity:1" fill="#625c7e" d="M 1302.5,163.5 C 1305.17,163.5 1307.83,163.5 1310.5,163.5C 1310.59,164.496 1310.25,165.329 1309.5,166C 1306.63,166.801 1303.97,166.634 1301.5,165.5C 1302.34,165.158 1302.67,164.492 1302.5,163.5 Z"></path></g><g><path style="opacity:1" fill="#e6e5e7" d="M 1319.5,171.5 C 1320.11,170.609 1320.44,169.609 1320.5,168.5C 1323.84,168.533 1327,167.866 1330,166.5C 1330.5,168.473 1330.66,170.473 1330.5,172.5C 1326.82,172.276 1323.15,171.942 1319.5,171.5 Z"></path></g><g><path style="opacity:1" fill="#b3aebf" d="M 1290.5,165.5 C 1298.17,167.629 1298.17,168.629 1290.5,168.5C 1290.5,167.5 1290.5,166.5 1290.5,165.5 Z"></path></g><g><path style="opacity:1" fill="#7a7491" d="M 1306.5,167.5 C 1310.5,167.5 1314.5,167.5 1318.5,167.5C 1318.84,168.338 1319.51,168.672 1320.5,168.5C 1320.44,169.609 1320.11,170.609 1319.5,171.5C 1318.17,171.5 1316.83,171.5 1315.5,171.5C 1315.5,170.5 1315.5,169.5 1315.5,168.5C 1312.29,168.81 1309.29,168.477 1306.5,167.5 Z"></path></g><g><path style="opacity:1" fill="#dedce1" d="M 1272.5,165.5 C 1273.81,168.687 1273.81,172.02 1272.5,175.5C 1268.73,178.227 1268.06,177.727 1270.5,174C 1271.41,171.209 1272.07,168.376 1272.5,165.5 Z"></path></g><g><path style="opacity:1" fill="#ac1f19" d="M 1227.5,118.5 C 1227.34,120.527 1227.5,122.527 1228,124.5C 1229.71,122.948 1231.54,121.615 1233.5,120.5C 1232.09,137.14 1234.09,153.306 1239.5,169C 1239.84,170.03 1240.5,170.53 1241.5,170.5C 1242.2,173.423 1243.2,176.256 1244.5,179C 1247.01,182.869 1249.34,186.703 1251.5,190.5C 1249.63,191.014 1247.8,191.68 1246,192.5C 1244.74,192.241 1243.74,191.574 1243,190.5C 1231.41,173.347 1225.58,154.18 1225.5,133C 1225.51,127.784 1226.17,122.951 1227.5,118.5 Z"></path></g><g><path style="opacity:1" fill="#e6e5e7" d="M 1285.5,173.5 C 1286.81,175.743 1287.48,178.41 1287.5,181.5C 1286.91,186.534 1286.25,191.534 1285.5,196.5C 1282.5,196.5 1279.5,196.5 1276.5,196.5C 1276.17,190.132 1276.5,183.798 1277.5,177.5C 1280.66,176.75 1283.33,175.416 1285.5,173.5 Z"></path></g><g><path style="opacity:1" fill="#676281" d="M 1349.5,173.5 C 1351.2,174.211 1352.2,175.545 1352.5,177.5C 1350.83,177.5 1349.17,177.5 1347.5,177.5C 1347.34,175.801 1347.51,174.134 1348,172.5C 1348.33,173.5 1348.67,174.5 1349,175.5C 1349.46,174.906 1349.63,174.239 1349.5,173.5 Z"></path></g><g><path style="opacity:1" fill="#e4e3e5" d="M 1330.5,187.5 C 1326.99,186.945 1323.99,187.612 1321.5,189.5C 1321.5,191.833 1321.5,194.167 1321.5,196.5C 1319.59,196.784 1317.92,196.451 1316.5,195.5C 1315.04,194.84 1313.37,194.507 1311.5,194.5C 1309.36,194.556 1307.69,195.223 1306.5,196.5C 1304.17,196.5 1301.83,196.5 1299.5,196.5C 1299.5,195.167 1299.5,193.833 1299.5,192.5C 1297.17,192.5 1294.83,192.5 1292.5,192.5C 1290.76,186.001 1290.09,179.334 1290.5,172.5C 1294.37,172.356 1298.21,172.69 1302,173.5C 1311.71,176.057 1321.21,179.057 1330.5,182.5C 1330.5,184.167 1330.5,185.833 1330.5,187.5 Z"></path></g><g><path style="opacity:1" fill="#f6edeb" d="M 1419.5,157.5 C 1419.41,159.696 1419.08,161.863 1418.5,164C 1408.26,192.238 1389.26,211.905 1361.5,223C 1356.9,224.286 1352.24,225.119 1347.5,225.5C 1346.02,225.762 1344.69,225.429 1343.5,224.5C 1350.5,221.668 1357.66,219.334 1365,217.5C 1370.3,214.771 1375.46,211.937 1380.5,209C 1382.03,206.569 1384.03,204.736 1386.5,203.5C 1388.49,200.833 1391.16,199.166 1394.5,198.5C 1395.01,195.978 1396.01,193.645 1397.5,191.5C 1406.92,181.655 1413.25,169.822 1416.5,156C 1418.96,152.471 1419.96,152.971 1419.5,157.5 Z"></path></g><g><path style="opacity:1" fill="#e2e0e3" d="M 1272.5,180.5 C 1273.52,194.021 1273.52,196.354 1272.5,187.5C 1270.14,187.663 1267.81,187.497 1265.5,187C 1267.47,184.316 1269.8,182.15 1272.5,180.5 Z"></path></g><g><path style="opacity:1" fill="#a6a1b3" d="M 1330.5,187.5 C 1328.01,189.388 1325.01,190.055 1321.5,189.5C 1323.99,187.612 1326.99,186.945 1330.5,187.5 Z"></path></g><g><path style="opacity:1" fill="#d2d0d5" d="M 1335.5,185.5 C 1336.58,185.539 1337.58,185.873 1338.5,186.5C 1339.49,189.768 1339.82,193.102 1339.5,196.5C 1338.17,196.5 1336.83,196.5 1335.5,196.5C 1335.5,192.833 1335.5,189.167 1335.5,185.5 Z"></path></g><g><path style="opacity:1" fill="#ceccd1" d="M 1347.5,191.5 C 1348.87,191.343 1350.21,191.51 1351.5,192C 1353.55,193.812 1355.89,195.145 1358.5,196C 1354.85,196.499 1351.18,196.665 1347.5,196.5C 1347.5,194.833 1347.5,193.167 1347.5,191.5 Z"></path></g><g><path style="opacity:1" fill="#79738f" d="M 1316.5,195.5 C 1313.1,195.342 1309.76,195.676 1306.5,196.5C 1307.69,195.223 1309.36,194.556 1311.5,194.5C 1313.37,194.507 1315.04,194.84 1316.5,195.5 Z"></path></g><g><path style="opacity:1" fill="#aca6bb" d="M 1394.5,186.5 C 1394.37,188.292 1394.7,189.958 1395.5,191.5C 1391.38,194.934 1387.05,198.1 1382.5,201C 1381.75,201.671 1381.41,202.504 1381.5,203.5C 1378.83,203.5 1376.17,203.5 1373.5,203.5C 1373.5,202.833 1373.5,202.167 1373.5,201.5C 1376.02,201.245 1378.35,200.411 1380.5,199C 1384.73,194.261 1389.4,190.094 1394.5,186.5 Z"></path></g><g><path style="opacity:1" fill="#49446a" d="M 1395.5,191.5 C 1396.17,191.5 1396.83,191.5 1397.5,191.5C 1396.01,193.645 1395.01,195.978 1394.5,198.5C 1391.16,199.166 1388.49,200.833 1386.5,203.5C 1384.83,203.5 1383.17,203.5 1381.5,203.5C 1381.41,202.504 1381.75,201.671 1382.5,201C 1387.05,198.1 1391.38,194.934 1395.5,191.5 Z"></path></g><g><path style="opacity:1" fill="#423d64" d="M 1267.5,201.5 C 1302.83,201.5 1338.17,201.5 1373.5,201.5C 1373.5,202.167 1373.5,202.833 1373.5,203.5C 1339.17,203.5 1304.83,203.5 1270.5,203.5C 1268.82,203.715 1267.82,203.048 1267.5,201.5 Z"></path></g><g><path style="opacity:1" fill="#d8d7d7" d="M 1270.5,203.5 C 1304.83,203.5 1339.17,203.5 1373.5,203.5C 1376.17,203.5 1378.83,203.5 1381.5,203.5C 1383.17,203.5 1384.83,203.5 1386.5,203.5C 1384.03,204.736 1382.03,206.569 1380.5,209C 1375.46,211.937 1370.3,214.771 1365,217.5C 1357.66,219.334 1350.5,221.668 1343.5,224.5C 1344.69,225.429 1346.02,225.762 1347.5,225.5C 1346.41,227.117 1344.74,227.95 1342.5,228C 1331.81,228.737 1321.14,228.57 1310.5,227.5C 1309.82,225.824 1308.48,225.157 1306.5,225.5C 1305.83,225.5 1305.17,225.5 1304.5,225.5C 1301.2,221.166 1296.7,218.499 1291,217.5C 1285.49,214.747 1280.16,211.747 1275,208.5C 1273.32,206.983 1271.82,205.317 1270.5,203.5 Z"></path></g><g><path style="opacity:1" fill="#991a15" d="M 1416.5,199.5 C 1414.85,205.281 1412.52,210.781 1409.5,216C 1396.47,237.872 1382.81,259.372 1368.5,280.5C 1367.54,282.075 1366.88,283.742 1366.5,285.5C 1365.5,285.414 1364.67,285.748 1364,286.5C 1359.62,294.508 1354.79,302.175 1349.5,309.5C 1346.27,314.585 1342.77,319.585 1339,324.5C 1338.52,325.448 1338.35,326.448 1338.5,327.5C 1336.14,328.895 1334.47,330.895 1333.5,333.5C 1332.16,336.348 1330.49,339.015 1328.5,341.5C 1326.15,338.781 1323.82,336.114 1321.5,333.5C 1321.5,333.167 1321.5,332.833 1321.5,332.5C 1322.5,332.586 1323.33,332.252 1324,331.5C 1327.23,316.672 1329.23,301.672 1330,286.5C 1331.93,281.669 1333.26,276.669 1334,271.5C 1337.02,264.974 1340.52,258.641 1344.5,252.5C 1351.13,246.843 1357.79,241.177 1364.5,235.5C 1368.82,234.326 1372.49,232.159 1375.5,229C 1376.74,227.846 1377.74,226.512 1378.5,225C 1384.29,221.6 1389.96,217.933 1395.5,214C 1398.9,214.266 1400.57,212.766 1400.5,209.5C 1401.87,209.657 1403.21,209.49 1404.5,209C 1408.43,204.997 1412.27,200.83 1416,196.5C 1416.48,197.448 1416.65,198.448 1416.5,199.5 Z"></path></g><g><path style="opacity:1" fill="#c41a18" d="M 1230.5,90.5 C 1229.56,93.9988 1229.56,97.3322 1230.5,100.5C 1228.48,106.297 1227.48,112.297 1227.5,118.5C 1226.17,122.951 1225.51,127.784 1225.5,133C 1225.58,154.18 1231.41,173.347 1243,190.5C 1243.74,191.574 1244.74,192.241 1246,192.5C 1247.8,191.68 1249.63,191.014 1251.5,190.5C 1264.13,206.442 1280.13,217.775 1299.5,224.5C 1297.36,226.111 1295.03,227.611 1292.5,229C 1299.91,232.443 1307.57,234.943 1315.5,236.5C 1314.26,238.941 1312.76,241.275 1311,243.5C 1310.76,247.731 1309.26,251.398 1306.5,254.5C 1307.17,255.167 1307.83,255.833 1308.5,256.5C 1306.99,257.249 1305.99,258.416 1305.5,260C 1306.65,261.73 1306.65,263.396 1305.5,265C 1306.31,266.314 1307.31,267.481 1308.5,268.5C 1307.97,269.192 1307.31,269.692 1306.5,270C 1308.03,270.7 1309.03,271.866 1309.5,273.5C 1306.62,280.526 1303.29,287.193 1299.5,293.5C 1298.5,293.5 1297.5,293.5 1296.5,293.5C 1295.12,290.972 1293.45,288.639 1291.5,286.5C 1290.86,284.174 1289.52,282.507 1287.5,281.5C 1278.09,266.765 1268.59,252.098 1259,237.5C 1248.57,219.941 1239.07,201.775 1230.5,183C 1222.95,161.481 1220.45,139.314 1223,116.5C 1223.83,107.22 1226.33,98.5529 1230.5,90.5 Z"></path></g><g><path style="opacity:1" fill="#c6bfbf" d="M 1242.5,165.5 C 1245.07,170.316 1247.41,175.316 1249.5,180.5C 1251.87,184.19 1254.54,187.523 1257.5,190.5C 1258.54,192.688 1260.04,192.688 1262,190.5C 1261.22,195.704 1263.05,199.37 1267.5,201.5C 1267.82,203.048 1268.82,203.715 1270.5,203.5C 1271.82,205.317 1273.32,206.983 1275,208.5C 1280.16,211.747 1285.49,214.747 1291,217.5C 1296.7,218.499 1301.2,221.166 1304.5,225.5C 1302.78,225.371 1301.12,225.038 1299.5,224.5C 1280.13,217.775 1264.13,206.442 1251.5,190.5C 1249.34,186.703 1247.01,182.869 1244.5,179C 1243.2,176.256 1242.2,173.423 1241.5,170.5C 1242.45,169.081 1242.78,167.415 1242.5,165.5 Z"></path></g><g><path style="opacity:1" fill="#a91b17" d="M 1426.5,94.5 C 1427.93,94.8807 1428.76,95.8807 1429,97.5C 1436.25,121.807 1436.25,146.14 1429,170.5C 1425.89,179.827 1422.39,188.994 1418.5,198C 1418.16,199.03 1417.5,199.53 1416.5,199.5C 1416.65,198.448 1416.48,197.448 1416,196.5C 1412.27,200.83 1408.43,204.997 1404.5,209C 1403.21,209.49 1401.87,209.657 1400.5,209.5C 1400.57,212.766 1398.9,214.266 1395.5,214C 1389.96,217.933 1384.29,221.6 1378.5,225C 1377.74,226.512 1376.74,227.846 1375.5,229C 1372.49,232.159 1368.82,234.326 1364.5,235.5C 1357.79,241.177 1351.13,246.843 1344.5,252.5C 1340.52,258.641 1337.02,264.974 1334,271.5C 1333.26,276.669 1331.93,281.669 1330,286.5C 1329.23,301.672 1327.23,316.672 1324,331.5C 1323.33,332.252 1322.5,332.586 1321.5,332.5C 1321.07,331.29 1320.4,330.29 1319.5,329.5C 1317.31,326.266 1315.31,322.933 1313.5,319.5C 1313.5,319.167 1313.5,318.833 1313.5,318.5C 1314.75,314.876 1316.58,311.543 1319,308.5C 1320.11,300.543 1320.78,292.543 1321,284.5C 1323.22,277.359 1324.72,270.026 1325.5,262.5C 1327.44,259.328 1328.78,255.994 1329.5,252.5C 1330.5,252.5 1331.5,252.5 1332.5,252.5C 1334.09,245.521 1338.09,240.354 1344.5,237C 1345.25,236.329 1345.59,235.496 1345.5,234.5C 1350.3,233.44 1355.13,232.44 1360,231.5C 1380.69,224.131 1397.69,211.798 1411,194.5C 1430.78,165.276 1435.62,133.609 1425.5,99.5C 1425.22,97.5853 1425.55,95.9187 1426.5,94.5 Z"></path></g><g><path style="opacity:1" fill="#da957f" d="M 1306.5,225.5 C 1308.48,225.157 1309.82,225.824 1310.5,227.5C 1308.52,227.843 1307.18,227.176 1306.5,225.5 Z"></path></g><g><path style="opacity:1" fill="#b61b18" d="M 1345.5,234.5 C 1345.59,235.496 1345.25,236.329 1344.5,237C 1338.09,240.354 1334.09,245.521 1332.5,252.5C 1331.5,252.5 1330.5,252.5 1329.5,252.5C 1328.78,255.994 1327.44,259.328 1325.5,262.5C 1324.72,270.026 1323.22,277.359 1321,284.5C 1320.78,292.543 1320.11,300.543 1319,308.5C 1316.58,311.543 1314.75,314.876 1313.5,318.5C 1312.22,318.218 1311.22,317.551 1310.5,316.5C 1310.65,315.448 1310.48,314.448 1310,313.5C 1306.92,308.762 1303.76,304.096 1300.5,299.5C 1298.57,297.94 1297.24,295.94 1296.5,293.5C 1297.5,293.5 1298.5,293.5 1299.5,293.5C 1303.29,287.193 1306.62,280.526 1309.5,273.5C 1309.03,271.866 1308.03,270.7 1306.5,270C 1307.31,269.692 1307.97,269.192 1308.5,268.5C 1307.31,267.481 1306.31,266.314 1305.5,265C 1306.65,263.396 1306.65,261.73 1305.5,260C 1305.99,258.416 1306.99,257.249 1308.5,256.5C 1307.83,255.833 1307.17,255.167 1306.5,254.5C 1309.26,251.398 1310.76,247.731 1311,243.5C 1312.76,241.275 1314.26,238.941 1315.5,236.5C 1325.58,236.753 1335.58,236.087 1345.5,234.5 Z"></path></g><g><path style="opacity:1" fill="#f7f6f4" d="M 1438.5,269.5 C 1443.52,270.058 1448.52,270.725 1453.5,271.5C 1453.5,272.833 1453.5,274.167 1453.5,275.5C 1447.13,274.299 1440.79,273.132 1434.5,272C 1437.39,275.633 1440.39,279.133 1443.5,282.5C 1446.77,283.487 1450.1,283.82 1453.5,283.5C 1453.5,284.5 1453.5,285.5 1453.5,286.5C 1451.4,286.201 1449.4,286.534 1447.5,287.5C 1449.21,289.882 1451.21,291.882 1453.5,293.5C 1453.5,295.833 1453.5,298.167 1453.5,300.5C 1450.43,300.183 1447.43,300.516 1444.5,301.5C 1445.35,302.845 1446.51,303.845 1448,304.5C 1448.48,305.448 1448.65,306.448 1448.5,307.5C 1450.17,307.5 1451.83,307.5 1453.5,307.5C 1453.5,314.833 1453.5,322.167 1453.5,329.5C 1446,329.705 1438.66,330.872 1431.5,333C 1436.42,335.376 1441.25,337.876 1446,340.5C 1448.43,341.479 1450.93,342.145 1453.5,342.5C 1453.5,343.833 1453.5,345.167 1453.5,346.5C 1446.32,346.525 1439.15,346.858 1432,347.5C 1429.07,347.525 1426.57,348.191 1424.5,349.5C 1416.49,349.334 1408.49,349.5 1400.5,350C 1406.94,353.815 1413.27,357.815 1419.5,362C 1430.82,364.941 1442.15,367.774 1453.5,370.5C 1453.5,371.5 1453.5,372.5 1453.5,373.5C 1435.87,369.051 1418.21,364.718 1400.5,360.5C 1394.58,357.709 1388.25,356.043 1381.5,355.5C 1381.5,354.5 1381.5,353.5 1381.5,352.5C 1388.99,354.787 1396.65,356.287 1404.5,357C 1399.95,354.962 1395.62,352.629 1391.5,350C 1390.69,348.686 1389.69,347.519 1388.5,346.5C 1397.48,345.502 1406.48,345.168 1415.5,345.5C 1415.67,344.178 1415.34,343.011 1414.5,342C 1410.12,339.303 1405.45,337.47 1400.5,336.5C 1400.5,336.167 1400.5,335.833 1400.5,335.5C 1400.5,334.5 1400.5,333.5 1400.5,332.5C 1401.87,332.343 1403.21,332.51 1404.5,333C 1411.33,336.038 1418,339.371 1424.5,343C 1431.17,343.667 1437.83,343.667 1444.5,343C 1428.33,336.079 1412.33,328.912 1396.5,321.5C 1396.5,320.5 1396.5,319.5 1396.5,318.5C 1404.32,315.952 1412.32,314.119 1420.5,313C 1418.78,311.566 1416.78,310.733 1414.5,310.5C 1407.86,309.668 1401.19,309.335 1394.5,309.5C 1394.52,307.435 1394.85,305.435 1395.5,303.5C 1403.76,304.252 1411.76,306.085 1419.5,309C 1421.5,309.667 1423.5,309.667 1425.5,309C 1421.11,303.634 1416.11,298.968 1410.5,295C 1407.17,294.39 1403.84,293.89 1400.5,293.5C 1399.03,289.899 1399.36,286.566 1401.5,283.5C 1406.31,287.075 1411.31,290.408 1416.5,293.5C 1425.89,294.439 1435.22,295.772 1444.5,297.5C 1446.5,297.167 1448.5,296.833 1450.5,296.5C 1447.41,292.783 1444.07,289.283 1440.5,286C 1427.36,285.051 1414.36,283.218 1401.5,280.5C 1402.11,279.609 1402.44,278.609 1402.5,277.5C 1414.08,279.708 1425.75,280.874 1437.5,281C 1435.5,279.333 1433.5,277.667 1431.5,276C 1422.56,274.056 1413.56,272.556 1404.5,271.5C 1405.4,268.609 1405.74,265.609 1405.5,262.5C 1416.38,265.369 1427.38,267.702 1438.5,269.5 Z"></path></g><g><path style="opacity:1" fill="#e4ded8" d="M 1404.5,271.5 C 1413.56,272.556 1422.56,274.056 1431.5,276C 1433.5,277.667 1435.5,279.333 1437.5,281C 1425.75,280.874 1414.08,279.708 1402.5,277.5C 1403.17,275.5 1403.83,273.5 1404.5,271.5 Z"></path></g><g><path style="opacity:1" fill="#e5dfd9" d="M 1453.5,275.5 C 1453.5,278.167 1453.5,280.833 1453.5,283.5C 1450.1,283.82 1446.77,283.487 1443.5,282.5C 1440.39,279.133 1437.39,275.633 1434.5,272C 1440.79,273.132 1447.13,274.299 1453.5,275.5 Z"></path></g><g><path style="opacity:0.992" fill="#1f204b" d="M 896.5,272.5 C 912.571,272.692 927.238,277.192 940.5,286C 944.424,289.417 947.757,293.25 950.5,297.5C 948.931,299.652 947.264,301.819 945.5,304C 942.075,306.307 938.742,308.807 935.5,311.5C 930.857,308.199 926.19,304.865 921.5,301.5C 904.422,292.508 888.422,294.008 873.5,306C 860.922,321.531 859.089,338.365 868,356.5C 883.699,374.438 902.199,377.771 923.5,366.5C 927.472,363.707 931.138,360.707 934.5,357.5C 936.055,357.722 937.389,358.389 938.5,359.5C 942.167,363.167 945.833,366.833 949.5,370.5C 950.326,371.451 950.492,372.451 950,373.5C 928.54,395.471 903.04,401.304 873.5,391C 842.461,372.488 832.294,345.655 843,310.5C 849.976,295.358 861.143,284.358 876.5,277.5C 883.436,275.844 890.102,274.177 896.5,272.5 Z"></path></g><g><path style="opacity:0.996" fill="#1f214b" d="M 1159.5,272.5 C 1167.17,272.5 1174.83,272.5 1182.5,272.5C 1182.5,312.5 1182.5,352.5 1182.5,392.5C 1174.83,392.5 1167.17,392.5 1159.5,392.5C 1159.66,390.143 1159.5,387.81 1159,385.5C 1142.47,398.789 1125.8,398.789 1109,385.5C 1092.21,367.461 1089.04,347.128 1099.5,324.5C 1114.25,302.951 1133.25,298.451 1156.5,311C 1157.05,311.925 1157.71,312.758 1158.5,313.5C 1159.5,299.85 1159.83,286.183 1159.5,272.5 Z M 1136.5,324.5 C 1141.97,324.522 1146.97,326.022 1151.5,329C 1162.84,340.275 1164.18,352.775 1155.5,366.5C 1145.78,374.782 1135.45,375.616 1124.5,369C 1116.02,359.202 1114.36,348.202 1119.5,336C 1123.83,330.168 1129.5,326.335 1136.5,324.5 Z"></path></g><g><path style="opacity:1" fill="#f3f1f0" d="M 1287.5,281.5 C 1289.52,282.507 1290.86,284.174 1291.5,286.5C 1289.71,286.215 1288.05,286.548 1286.5,287.5C 1285.33,289.169 1284,290.669 1282.5,292C 1284.84,294.384 1287.18,296.718 1289.5,299C 1293.15,299.499 1296.82,299.665 1300.5,299.5C 1303.76,304.096 1306.92,308.762 1310,313.5C 1310.48,314.448 1310.65,315.448 1310.5,316.5C 1310.42,317.75 1309.76,318.583 1308.5,319C 1311.05,322.303 1310.05,323.637 1305.5,323C 1298.28,315.404 1290.95,307.904 1283.5,300.5C 1282.08,298.861 1280.42,298.027 1278.5,298C 1271.85,305.731 1265.52,313.897 1259.5,322.5C 1271.16,326.365 1283.16,328.699 1295.5,329.5C 1295.5,330.833 1295.5,332.167 1295.5,333.5C 1292.17,333.5 1288.83,333.5 1285.5,333.5C 1287.97,340.728 1290.3,348.062 1292.5,355.5C 1297.94,353.509 1303.11,350.843 1308,347.5C 1310.77,345.985 1313.27,346.318 1315.5,348.5C 1315.02,349.478 1314.36,350.311 1313.5,351C 1309.05,353.772 1304.39,356.272 1299.5,358.5C 1303.33,360.734 1307.17,363.068 1311,365.5C 1313.48,360.385 1316.15,355.385 1319,350.5C 1320.7,349.594 1322.53,349.261 1324.5,349.5C 1324.44,351.494 1324.78,353.661 1325.5,356C 1324.54,359.712 1323.21,363.212 1321.5,366.5C 1320.57,370.342 1318.24,373.009 1314.5,374.5C 1313.98,376.453 1312.98,378.12 1311.5,379.5C 1312.32,380.386 1313.32,380.719 1314.5,380.5C 1312.61,384.281 1311.11,388.281 1310,392.5C 1308.3,393.406 1306.47,393.739 1304.5,393.5C 1295.35,390.607 1285.85,388.607 1276,387.5C 1268.33,385.5 1260.67,383.5 1253,381.5C 1251.5,381.833 1250,382.167 1248.5,382.5C 1249.32,383.386 1250.32,383.719 1251.5,383.5C 1251.5,385.5 1251.5,387.5 1251.5,389.5C 1268.56,390.201 1285.56,391.535 1302.5,393.5C 1278.34,394.498 1254.01,394.831 1229.5,394.5C 1230.79,389.556 1232.46,384.723 1234.5,380C 1227.34,378.665 1220.34,376.832 1213.5,374.5C 1214.33,372.833 1215.17,371.167 1216,369.5C 1238.45,341.366 1260.61,312.866 1282.5,284C 1283.9,282.562 1285.57,281.729 1287.5,281.5 Z"></path></g><g><path style="opacity:1" fill="#e1dad2" d="M 1401.5,280.5 C 1414.36,283.218 1427.36,285.051 1440.5,286C 1444.07,289.283 1447.41,292.783 1450.5,296.5C 1448.5,296.833 1446.5,297.167 1444.5,297.5C 1435.22,295.772 1425.89,294.439 1416.5,293.5C 1411.31,290.408 1406.31,287.075 1401.5,283.5C 1401.5,282.5 1401.5,281.5 1401.5,280.5 Z"></path></g><g><path style="opacity:1" fill="#e4dcd5" d="M 1291.5,286.5 C 1293.45,288.639 1295.12,290.972 1296.5,293.5C 1297.24,295.94 1298.57,297.94 1300.5,299.5C 1296.82,299.665 1293.15,299.499 1289.5,299C 1287.18,296.718 1284.84,294.384 1282.5,292C 1284,290.669 1285.33,289.169 1286.5,287.5C 1288.05,286.548 1289.71,286.215 1291.5,286.5 Z"></path></g><g><path style="opacity:1" fill="#bdbcb9" d="M 1438.5,269.5 C 1427.38,267.702 1416.38,265.369 1405.5,262.5C 1405.74,265.609 1405.4,268.609 1404.5,271.5C 1403.83,273.5 1403.17,275.5 1402.5,277.5C 1402.44,278.609 1402.11,279.609 1401.5,280.5C 1401.5,281.5 1401.5,282.5 1401.5,283.5C 1399.36,286.566 1399.03,289.899 1400.5,293.5C 1399.5,293.5 1398.5,293.5 1397.5,293.5C 1392.75,295.403 1388.08,297.57 1383.5,300C 1381.6,303.398 1380.93,306.898 1381.5,310.5C 1385.94,307.723 1390.61,305.39 1395.5,303.5C 1394.85,305.435 1394.52,307.435 1394.5,309.5C 1393.83,309.5 1393.17,309.5 1392.5,309.5C 1388.27,314.212 1383.43,318.212 1378,321.5C 1377.33,320.5 1377.33,319.5 1378,318.5C 1380.17,317.667 1381.67,316.167 1382.5,314C 1379.51,315.739 1376.18,316.905 1372.5,317.5C 1372.5,316.5 1372.5,315.5 1372.5,314.5C 1373.82,314.67 1374.99,314.337 1376,313.5C 1378.86,305.12 1377.19,303.787 1371,309.5C 1370.51,310.793 1370.34,312.127 1370.5,313.5C 1369.17,313.5 1367.83,313.5 1366.5,313.5C 1366.47,311.801 1365.81,310.467 1364.5,309.5C 1368.82,307.19 1373.15,304.857 1377.5,302.5C 1379.45,300.908 1380.78,298.908 1381.5,296.5C 1380.62,295.749 1379.62,295.249 1378.5,295C 1379.17,294.667 1379.83,294.333 1380.5,294C 1376.16,292.429 1371.99,290.596 1368,288.5C 1367.33,287.833 1367.33,287.167 1368,286.5C 1368.99,285.934 1369.83,285.267 1370.5,284.5C 1370.91,283.357 1371.57,282.357 1372.5,281.5C 1382.82,274.329 1393.49,267.829 1404.5,262C 1406.5,261.333 1408.5,261.333 1410.5,262C 1418.82,264.598 1427.32,266.431 1436,267.5C 1437.38,267.684 1438.21,268.351 1438.5,269.5 Z"></path></g><g><path style="opacity:1" fill="#91c148" d="M 1453.5,286.5 C 1453.5,288.833 1453.5,291.167 1453.5,293.5C 1451.21,291.882 1449.21,289.882 1447.5,287.5C 1449.4,286.534 1451.4,286.201 1453.5,286.5 Z"></path></g><g><path style="opacity:1" fill="#ada69d" d="M 1370.5,284.5 C 1369.83,285.267 1368.99,285.934 1368,286.5C 1367.33,287.167 1367.33,287.833 1368,288.5C 1371.99,290.596 1376.16,292.429 1380.5,294C 1379.83,294.333 1379.17,294.667 1378.5,295C 1379.62,295.249 1380.62,295.749 1381.5,296.5C 1380.78,298.908 1379.45,300.908 1377.5,302.5C 1373.15,304.857 1368.82,307.19 1364.5,309.5C 1362.51,308.463 1360.51,308.797 1358.5,310.5C 1356.32,312.847 1353.82,314.847 1351,316.5C 1350.5,316.167 1350,315.833 1349.5,315.5C 1351.17,314.5 1352.5,313.167 1353.5,311.5C 1352.05,310.828 1350.72,310.161 1349.5,309.5C 1354.79,302.175 1359.62,294.508 1364,286.5C 1364.67,285.748 1365.5,285.414 1366.5,285.5C 1367.71,284.766 1369.04,284.433 1370.5,284.5 Z"></path></g><g><path style="opacity:1" fill="#92c149" d="M 1397.5,293.5 C 1398.5,293.5 1399.5,293.5 1400.5,293.5C 1403.84,293.89 1407.17,294.39 1410.5,295C 1416.11,298.968 1421.11,303.634 1425.5,309C 1423.5,309.667 1421.5,309.667 1419.5,309C 1411.76,306.085 1403.76,304.252 1395.5,303.5C 1396.55,300.272 1397.21,296.939 1397.5,293.5 Z"></path></g><g><path style="opacity:1" fill="#789e3e" d="M 1397.5,293.5 C 1397.21,296.939 1396.55,300.272 1395.5,303.5C 1390.61,305.39 1385.94,307.723 1381.5,310.5C 1380.93,306.898 1381.6,303.398 1383.5,300C 1388.08,297.57 1392.75,295.403 1397.5,293.5 Z"></path></g><g><path style="opacity:1" fill="#d5cdbc" d="M 1453.5,300.5 C 1453.5,302.833 1453.5,305.167 1453.5,307.5C 1451.83,307.5 1450.17,307.5 1448.5,307.5C 1448.65,306.448 1448.48,305.448 1448,304.5C 1446.51,303.845 1445.35,302.845 1444.5,301.5C 1447.43,300.516 1450.43,300.183 1453.5,300.5 Z"></path></g><g><path style="opacity:0.995" fill="#1f204b" d="M 983.5,304.5 C 997.112,302.189 1008.94,305.523 1019,314.5C 1019.5,311.518 1019.66,308.518 1019.5,305.5C 1027.17,305.5 1034.83,305.5 1042.5,305.5C 1042.5,334.5 1042.5,363.5 1042.5,392.5C 1034.83,392.5 1027.17,392.5 1019.5,392.5C 1019.66,390.143 1019.5,387.81 1019,385.5C 1005.67,395.996 991.171,397.829 975.5,391C 960.311,381.394 952.644,367.394 952.5,349C 952.937,326.872 963.27,312.039 983.5,304.5 Z M 995.5,324.5 C 1014.54,327.186 1022.37,338.186 1019,357.5C 1012.94,372.201 1002.27,376.867 987,371.5C 974.777,361.811 972.111,349.811 979,335.5C 983.06,329.596 988.56,325.929 995.5,324.5 Z"></path></g><g><path style="opacity:0.996" fill="#1f204b" d="M 1082.5,304.5 C 1087.87,304.392 1093.2,304.725 1098.5,305.5C 1096.05,311.64 1094.05,317.974 1092.5,324.5C 1088.71,324.471 1084.88,324.804 1081,325.5C 1078.64,328.559 1076.64,331.893 1075,335.5C 1073.68,354.474 1073.18,373.474 1073.5,392.5C 1066.5,392.5 1059.5,392.5 1052.5,392.5C 1052.5,363.5 1052.5,334.5 1052.5,305.5C 1058.5,305.5 1064.5,305.5 1070.5,305.5C 1070.18,308.572 1070.52,311.572 1071.5,314.5C 1074.2,310.003 1077.86,306.67 1082.5,304.5 Z"></path></g><g><path style="opacity:1" fill="#dcd6d2" d="M 1392.5,309.5 C 1393.17,309.5 1393.83,309.5 1394.5,309.5C 1401.19,309.335 1407.86,309.668 1414.5,310.5C 1416.78,310.733 1418.78,311.566 1420.5,313C 1412.32,314.119 1404.32,315.952 1396.5,318.5C 1396.5,319.5 1396.5,320.5 1396.5,321.5C 1412.33,328.912 1428.33,336.079 1444.5,343C 1437.83,343.667 1431.17,343.667 1424.5,343C 1418,339.371 1411.33,336.038 1404.5,333C 1403.21,332.51 1401.87,332.343 1400.5,332.5C 1400.5,333.5 1400.5,334.5 1400.5,335.5C 1396.09,333.484 1391.76,331.484 1387.5,329.5C 1390.18,323.11 1391.85,316.444 1392.5,309.5 Z"></path></g><g><path style="opacity:1" fill="#93c14d" d="M 1416.5,317.5 C 1424.28,320.376 1432.28,322.709 1440.5,324.5C 1441.91,324.868 1442.91,325.701 1443.5,327C 1436.81,327.651 1430.14,328.484 1423.5,329.5C 1417.81,327.123 1412.14,324.79 1406.5,322.5C 1406.5,321.5 1406.5,320.5 1406.5,319.5C 1410.16,319.841 1413.49,319.175 1416.5,317.5 Z"></path></g><g><path style="opacity:1" fill="#9a9794" d="M 1392.5,309.5 C 1391.85,316.444 1390.18,323.11 1387.5,329.5C 1386.67,333.136 1386.01,336.803 1385.5,340.5C 1383.95,342.539 1382.95,344.872 1382.5,347.5C 1381.47,348.687 1380.13,349.52 1378.5,350C 1375.63,350.315 1372.8,350.815 1370,351.5C 1368.99,350.944 1368.16,350.278 1367.5,349.5C 1368.86,347.73 1370.69,346.397 1373,345.5C 1373.19,343.939 1372.35,343.272 1370.5,343.5C 1372.17,341.203 1374.5,339.87 1377.5,339.5C 1380.22,337.01 1382.22,334.01 1383.5,330.5C 1377.19,329.669 1370.86,329.169 1364.5,329C 1369.11,327.093 1369.28,325.593 1365,324.5C 1361.68,325.822 1358.34,327.156 1355,328.5C 1354.5,328.333 1354,328.167 1353.5,328C 1355.36,326.972 1356.69,325.472 1357.5,323.5C 1353.98,321.828 1351.98,322.995 1351.5,327C 1350.55,327.483 1349.55,327.649 1348.5,327.5C 1349.05,325.669 1349.05,324.003 1348.5,322.5C 1345.37,324.64 1342.04,326.307 1338.5,327.5C 1338.35,326.448 1338.52,325.448 1339,324.5C 1342.77,319.585 1346.27,314.585 1349.5,309.5C 1350.72,310.161 1352.05,310.828 1353.5,311.5C 1352.5,313.167 1351.17,314.5 1349.5,315.5C 1350,315.833 1350.5,316.167 1351,316.5C 1353.82,314.847 1356.32,312.847 1358.5,310.5C 1360.51,308.797 1362.51,308.463 1364.5,309.5C 1365.81,310.467 1366.47,311.801 1366.5,313.5C 1367.83,313.5 1369.17,313.5 1370.5,313.5C 1370.34,312.127 1370.51,310.793 1371,309.5C 1377.19,303.787 1378.86,305.12 1376,313.5C 1374.99,314.337 1373.82,314.67 1372.5,314.5C 1372.5,315.5 1372.5,316.5 1372.5,317.5C 1376.18,316.905 1379.51,315.739 1382.5,314C 1381.67,316.167 1380.17,317.667 1378,318.5C 1377.33,319.5 1377.33,320.5 1378,321.5C 1383.43,318.212 1388.27,314.212 1392.5,309.5 Z"></path></g><g><path style="opacity:1" fill="#e4ddd7" d="M 1256.5,327.5 C 1263.16,328.24 1269.82,328.906 1276.5,329.5C 1277.49,333.443 1278.15,337.443 1278.5,341.5C 1268.48,341.857 1258.48,342.523 1248.5,343.5C 1247.17,343.167 1245.83,342.833 1244.5,342.5C 1248.9,337.77 1252.9,332.77 1256.5,327.5 Z"></path></g><g><path style="opacity:1" fill="#7f7c7a" d="M 1370.5,343.5 C 1366.65,343.481 1362.98,344.314 1359.5,346C 1357.5,348.059 1355.16,349.559 1352.5,350.5C 1344.85,351.504 1337.19,351.504 1329.5,350.5C 1329.5,349.5 1329.5,348.5 1329.5,347.5C 1327.83,347.5 1326.17,347.5 1324.5,347.5C 1318.94,346.611 1313.94,344.611 1309.5,341.5C 1308.55,338.447 1308.55,335.614 1309.5,333C 1313.14,332.241 1316.47,331.075 1319.5,329.5C 1320.4,330.29 1321.07,331.29 1321.5,332.5C 1321.5,332.833 1321.5,333.167 1321.5,333.5C 1316.47,334.176 1314.81,336.842 1316.5,341.5C 1319.99,345.33 1324.32,346.997 1329.5,346.5C 1337.48,346.642 1345.48,346.642 1353.5,346.5C 1353.33,345.178 1353.66,344.011 1354.5,343C 1356.93,341.409 1359.59,340.575 1362.5,340.5C 1362.5,339.167 1362.5,337.833 1362.5,336.5C 1360.05,336.321 1357.88,336.987 1356,338.5C 1355.5,338.167 1355,337.833 1354.5,337.5C 1356.76,336.579 1357.76,334.912 1357.5,332.5C 1355.45,332.489 1353.45,332.156 1351.5,331.5C 1348.97,332.942 1346.31,333.442 1343.5,333C 1344.36,332.311 1345.02,331.478 1345.5,330.5C 1342.91,329.52 1340.25,329.187 1337.5,329.5C 1337.53,331.619 1336.53,332.952 1334.5,333.5C 1334.17,333.5 1333.83,333.5 1333.5,333.5C 1334.47,330.895 1336.14,328.895 1338.5,327.5C 1342.04,326.307 1345.37,324.64 1348.5,322.5C 1349.05,324.003 1349.05,325.669 1348.5,327.5C 1349.55,327.649 1350.55,327.483 1351.5,327C 1351.98,322.995 1353.98,321.828 1357.5,323.5C 1356.69,325.472 1355.36,326.972 1353.5,328C 1354,328.167 1354.5,328.333 1355,328.5C 1358.34,327.156 1361.68,325.822 1365,324.5C 1369.28,325.593 1369.11,327.093 1364.5,329C 1370.86,329.169 1377.19,329.669 1383.5,330.5C 1382.22,334.01 1380.22,337.01 1377.5,339.5C 1374.5,339.87 1372.17,341.203 1370.5,343.5 Z"></path></g><g><path style="opacity:1" fill="#e5ded8" d="M 1453.5,329.5 C 1453.5,333.833 1453.5,338.167 1453.5,342.5C 1450.93,342.145 1448.43,341.479 1446,340.5C 1441.25,337.876 1436.42,335.376 1431.5,333C 1438.66,330.872 1446,329.705 1453.5,329.5 Z"></path></g><g><path style="opacity:1" fill="#aba6a5" d="M 1313.5,319.5 C 1315.31,322.933 1317.31,326.266 1319.5,329.5C 1316.47,331.075 1313.14,332.241 1309.5,333C 1308.55,335.614 1308.55,338.447 1309.5,341.5C 1308.1,341.029 1306.77,340.362 1305.5,339.5C 1304.9,336.375 1303.9,333.375 1302.5,330.5C 1303.01,328.912 1304.01,327.745 1305.5,327C 1308.17,327 1310.83,327 1313.5,327C 1315.01,324.546 1314.35,322.879 1311.5,322C 1312.76,321.583 1313.42,320.75 1313.5,319.5 Z"></path></g><g><path style="opacity:1" fill="#beb7b3" d="M 1387.5,329.5 C 1391.76,331.484 1396.09,333.484 1400.5,335.5C 1400.5,335.833 1400.5,336.167 1400.5,336.5C 1396.65,342.956 1391.65,344.289 1385.5,340.5C 1386.01,336.803 1386.67,333.136 1387.5,329.5 Z"></path></g><g><path style="opacity:1" fill="#ded8d3" d="M 1310.5,316.5 C 1311.22,317.551 1312.22,318.218 1313.5,318.5C 1313.5,318.833 1313.5,319.167 1313.5,319.5C 1313.42,320.75 1312.76,321.583 1311.5,322C 1314.35,322.879 1315.01,324.546 1313.5,327C 1310.83,327 1308.17,327 1305.5,327C 1304.01,327.745 1303.01,328.912 1302.5,330.5C 1303.9,333.375 1304.9,336.375 1305.5,339.5C 1306.77,340.362 1308.1,341.029 1309.5,341.5C 1313.94,344.611 1318.94,346.611 1324.5,347.5C 1324.5,348.167 1324.5,348.833 1324.5,349.5C 1322.53,349.261 1320.7,349.594 1319,350.5C 1316.15,355.385 1313.48,360.385 1311,365.5C 1307.17,363.068 1303.33,360.734 1299.5,358.5C 1304.39,356.272 1309.05,353.772 1313.5,351C 1314.36,350.311 1315.02,349.478 1315.5,348.5C 1313.27,346.318 1310.77,345.985 1308,347.5C 1303.11,350.843 1297.94,353.509 1292.5,355.5C 1290.3,348.062 1287.97,340.728 1285.5,333.5C 1288.83,333.5 1292.17,333.5 1295.5,333.5C 1295.5,332.167 1295.5,330.833 1295.5,329.5C 1283.16,328.699 1271.16,326.365 1259.5,322.5C 1265.52,313.897 1271.85,305.731 1278.5,298C 1280.42,298.027 1282.08,298.861 1283.5,300.5C 1290.95,307.904 1298.28,315.404 1305.5,323C 1310.05,323.637 1311.05,322.303 1308.5,319C 1309.76,318.583 1310.42,317.75 1310.5,316.5 Z"></path></g><g><path style="opacity:1" fill="#d7d1cc" d="M 1400.5,336.5 C 1405.45,337.47 1410.12,339.303 1414.5,342C 1415.34,343.011 1415.67,344.178 1415.5,345.5C 1406.48,345.168 1397.48,345.502 1388.5,346.5C 1389.69,347.519 1390.69,348.686 1391.5,350C 1395.62,352.629 1399.95,354.962 1404.5,357C 1396.65,356.287 1388.99,354.787 1381.5,352.5C 1382.04,350.883 1382.37,349.216 1382.5,347.5C 1382.95,344.872 1383.95,342.539 1385.5,340.5C 1391.65,344.289 1396.65,342.956 1400.5,336.5 Z"></path></g><g><path style="opacity:1" fill="#656263" d="M 1329.5,346.5 C 1333.66,343.994 1336.33,340.328 1337.5,335.5C 1335.82,335.715 1334.82,335.048 1334.5,333.5C 1336.53,332.952 1337.53,331.619 1337.5,329.5C 1340.25,329.187 1342.91,329.52 1345.5,330.5C 1345.02,331.478 1344.36,332.311 1343.5,333C 1346.31,333.442 1348.97,332.942 1351.5,331.5C 1353.45,332.156 1355.45,332.489 1357.5,332.5C 1357.76,334.912 1356.76,336.579 1354.5,337.5C 1355,337.833 1355.5,338.167 1356,338.5C 1357.88,336.987 1360.05,336.321 1362.5,336.5C 1362.5,337.833 1362.5,339.167 1362.5,340.5C 1359.59,340.575 1356.93,341.409 1354.5,343C 1353.66,344.011 1353.33,345.178 1353.5,346.5C 1345.48,346.642 1337.48,346.642 1329.5,346.5 Z"></path></g><g><path style="opacity:1" fill="#3c542b" d="M 1321.5,333.5 C 1323.82,336.114 1326.15,338.781 1328.5,341.5C 1330.49,339.015 1332.16,336.348 1333.5,333.5C 1333.83,333.5 1334.17,333.5 1334.5,333.5C 1334.82,335.048 1335.82,335.715 1337.5,335.5C 1336.33,340.328 1333.66,343.994 1329.5,346.5C 1324.32,346.997 1319.99,345.33 1316.5,341.5C 1314.81,336.842 1316.47,334.176 1321.5,333.5 Z"></path></g><g><path style="opacity:1" fill="#e4ddd8" d="M 1266.5,345.5 C 1271.51,345.334 1276.51,345.501 1281.5,346C 1284.45,350.016 1286.12,354.516 1286.5,359.5C 1279.88,360.926 1273.21,361.759 1266.5,362C 1263.27,357.391 1261.61,352.225 1261.5,346.5C 1263.41,346.784 1265.08,346.451 1266.5,345.5 Z"></path></g><g><path style="opacity:1" fill="#d5ccbb" d="M 1453.5,346.5 C 1453.5,349.5 1453.5,352.5 1453.5,355.5C 1448.12,355.265 1442.79,355.598 1437.5,356.5C 1433.34,353.886 1429.01,351.552 1424.5,349.5C 1426.57,348.191 1429.07,347.525 1432,347.5C 1439.15,346.858 1446.32,346.525 1453.5,346.5 Z"></path></g><g><path style="opacity:1" fill="#60803a" d="M 1370.5,343.5 C 1372.35,343.272 1373.19,343.939 1373,345.5C 1370.69,346.397 1368.86,347.73 1367.5,349.5C 1362.51,351.593 1357.51,351.926 1352.5,350.5C 1355.16,349.559 1357.5,348.059 1359.5,346C 1362.98,344.314 1366.65,343.481 1370.5,343.5 Z"></path></g><g><path style="opacity:1" fill="#e4ddd7" d="M 1424.5,349.5 C 1429.01,351.552 1433.34,353.886 1437.5,356.5C 1442.79,355.598 1448.12,355.265 1453.5,355.5C 1453.5,360.5 1453.5,365.5 1453.5,370.5C 1442.15,367.774 1430.82,364.941 1419.5,362C 1413.27,357.815 1406.94,353.815 1400.5,350C 1408.49,349.5 1416.49,349.334 1424.5,349.5 Z"></path></g><g><path style="opacity:1" fill="#b2aea9" d="M 1324.5,347.5 C 1326.17,347.5 1327.83,347.5 1329.5,347.5C 1329.5,348.5 1329.5,349.5 1329.5,350.5C 1337.19,351.504 1344.85,351.504 1352.5,350.5C 1357.51,351.926 1362.51,351.593 1367.5,349.5C 1368.16,350.278 1368.99,350.944 1370,351.5C 1372.8,350.815 1375.63,350.315 1378.5,350C 1380.13,349.52 1381.47,348.687 1382.5,347.5C 1382.37,349.216 1382.04,350.883 1381.5,352.5C 1378.96,353.037 1376.96,354.37 1375.5,356.5C 1371.99,358.161 1368.33,359.494 1364.5,360.5C 1364.17,357.833 1363.83,355.167 1363.5,352.5C 1357.13,352.17 1350.8,352.504 1344.5,353.5C 1337.99,357.83 1331.32,361.997 1324.5,366C 1323.55,366.483 1322.55,366.649 1321.5,366.5C 1323.21,363.212 1324.54,359.712 1325.5,356C 1324.78,353.661 1324.44,351.494 1324.5,349.5C 1324.5,348.833 1324.5,348.167 1324.5,347.5 Z"></path></g><g><path style="opacity:1" fill="#95c34e" d="M 1251.5,356.5 C 1253.5,356.5 1255.5,356.5 1257.5,356.5C 1258.46,359.426 1259.13,362.426 1259.5,365.5C 1255.5,365.833 1251.5,366.167 1247.5,366.5C 1247.66,364.801 1247.49,363.134 1247,361.5C 1245.29,360.692 1244.46,359.359 1244.5,357.5C 1247.06,357.802 1249.39,357.468 1251.5,356.5 Z"></path></g><g><path style="opacity:0.527" fill="#cdcdcc" d="M 1381.5,352.5 C 1381.5,353.5 1381.5,354.5 1381.5,355.5C 1388.25,356.043 1394.58,357.709 1400.5,360.5C 1399.85,364.462 1399.52,368.795 1399.5,373.5C 1417.55,374.863 1435.55,376.529 1453.5,378.5C 1453.5,378.833 1453.5,379.167 1453.5,379.5C 1438.83,379.667 1424.16,379.5 1409.5,379C 1400.62,376.979 1391.62,376.145 1382.5,376.5C 1382.56,370.65 1383.56,364.983 1385.5,359.5C 1384.64,357.233 1382.97,356.233 1380.5,356.5C 1379,355.506 1377.33,355.506 1375.5,356.5C 1376.96,354.37 1378.96,353.037 1381.5,352.5 Z"></path></g><g><path style="opacity:0.525" fill="#b0b1b0" d="M 1400.5,360.5 C 1418.21,364.718 1435.87,369.051 1453.5,373.5C 1453.5,375.167 1453.5,376.833 1453.5,378.5C 1435.55,376.529 1417.55,374.863 1399.5,373.5C 1399.52,368.795 1399.85,364.462 1400.5,360.5 Z"></path></g><g><path style="opacity:1" fill="#e5ded8" d="M 1280.5,364.5 C 1282.2,364.34 1283.87,364.506 1285.5,365C 1280.49,370.988 1275.66,377.154 1271,383.5C 1255.33,380.189 1239.5,377.023 1223.5,374C 1223.04,373.586 1222.71,373.086 1222.5,372.5C 1237.34,371.277 1252.18,369.944 1267,368.5C 1271.64,367.232 1276.14,365.899 1280.5,364.5 Z"></path></g><g><path style="opacity:1" fill="#bdbbb8" d="M 1375.5,356.5 C 1377.33,355.506 1379,355.506 1380.5,356.5C 1374.69,359.237 1369.03,362.237 1363.5,365.5C 1347.06,374.892 1330.39,384.059 1313.5,393C 1310.41,394.534 1307.41,394.701 1304.5,393.5C 1306.47,393.739 1308.3,393.406 1310,392.5C 1311.11,388.281 1312.61,384.281 1314.5,380.5C 1313.32,380.719 1312.32,380.386 1311.5,379.5C 1312.98,378.12 1313.98,376.453 1314.5,374.5C 1318.24,373.009 1320.57,370.342 1321.5,366.5C 1322.55,366.649 1323.55,366.483 1324.5,366C 1331.32,361.997 1337.99,357.83 1344.5,353.5C 1350.8,352.504 1357.13,352.17 1363.5,352.5C 1363.83,355.167 1364.17,357.833 1364.5,360.5C 1368.33,359.494 1371.99,358.161 1375.5,356.5 Z"></path></g><g><path style="opacity:0.502" fill="#e8e8e8" d="M 1380.5,356.5 C 1382.97,356.233 1384.64,357.233 1385.5,359.5C 1383.56,364.983 1382.56,370.65 1382.5,376.5C 1391.62,376.145 1400.62,376.979 1409.5,379C 1424.16,379.5 1438.83,379.667 1453.5,379.5C 1453.5,380.167 1453.5,380.833 1453.5,381.5C 1422.83,381.364 1392.16,381.031 1361.5,380.5C 1361.84,375.452 1362.51,370.452 1363.5,365.5C 1369.03,362.237 1374.69,359.237 1380.5,356.5 Z"></path></g><g><path style="opacity:0.533" fill="#c4c3c3" d="M 1304.5,393.5 C 1303.83,393.5 1303.17,393.5 1302.5,393.5C 1285.56,391.535 1268.56,390.201 1251.5,389.5C 1251.5,387.5 1251.5,385.5 1251.5,383.5C 1250.32,383.719 1249.32,383.386 1248.5,382.5C 1250,382.167 1251.5,381.833 1253,381.5C 1260.67,383.5 1268.33,385.5 1276,387.5C 1285.85,388.607 1295.35,390.607 1304.5,393.5 Z"></path></g></svg> 